<svg width="16" height="16" viewBox="0 0 16 16" fill="none" xmlns="http://www.w3.org/2000/svg">
<g clip-path="url(#clip0_5126_447)">
<path d="M8.00016 1.33331C4.31826 1.33331 1.3335 4.31808 1.3335 7.99998C1.3335 11.6818 4.31826 14.6666 8.00016 14.6666C11.682 14.6666 14.6668 11.6818 14.6668 7.99998C14.6668 4.31808 11.682 1.33331 8.00016 1.33331Z" stroke="white" stroke-width="1.5" stroke-linecap="round" stroke-linejoin="round"/>
<path d="M2.84717 12.2304C2.84717 12.2304 4.33318 10.3333 7.99983 10.3333C11.6665 10.3333 13.1526 12.2304 13.1526 12.2304" stroke="white" stroke-width="1.5" stroke-linecap="round" stroke-linejoin="round"/>
<path d="M8 8C9.1046 8 10 7.1046 10 6C10 4.89543 9.1046 4 8 4C6.8954 4 6 4.89543 6 6C6 7.1046 6.8954 8 8 8Z" stroke="white" stroke-width="1.5" stroke-linecap="round" stroke-linejoin="round"/>
</g>
<defs>
<clipPath id="clip0_5126_447">
<rect width="16" height="16" fill="white"/>
</clipPath>
</defs>
</svg>
